<svg xmlns="http://www.w3.org/2000/svg" viewBox="0 0 2591.48 1861.56"><defs><style>.cls-1{isolation:isolate;}.cls-2{fill:#7e7f7d;}.cls-3{fill:#6bb6e9;}.cls-4{fill:#edc143;}.cls-5{fill:#d6de83;}.cls-6{fill:#696969;}.cls-7{fill:#f77732;}.cls-8{fill:#a1cedc;}.cls-9{fill:#6f8eac;}.cls-10{fill:#77beed;mix-blend-mode:multiply;}.cls-11{fill:#f7f7f8;}.cls-12{fill:#fff;}.cls-13{fill:#5b5b5f;}</style></defs><title>DD File Type Icon Collection 76765</title><g class="cls-1"><g id="Capa_1" data-name="Capa 1"><polygon class="cls-2" points="2352.74 1738.21 1282.01 1738.21 211.29 1738.21 290.05 1661.44 211.29 1584.68 1282.01 1584.68 2352.74 1584.68 2273.97 1661.44 2352.74 1738.21"/><rect class="cls-3" x="0.27" y="522.98" width="530.74" height="466.37"/><rect class="cls-4" x="687.09" y="522.98" width="530.74" height="466.37"/><rect class="cls-5" x="1373.92" y="522.98" width="530.74" height="466.37"/><rect class="cls-6" x="2060.74" y="522.98" width="530.74" height="466.37"/><rect class="cls-3" x="2060.74" y="1045.96" width="530.74" height="466.37"/><rect class="cls-4" x="1373.91" y="1045.96" width="530.74" height="466.37"/><rect class="cls-7" x="687.09" y="1045.96" width="530.74" height="466.37"/><rect class="cls-6" x="0.27" y="1045.96" width="530.74" height="466.37"/><rect class="cls-8" x="2060.46" width="530.74" height="466.45"/><rect class="cls-9" width="530.74" height="466.45"/><rect class="cls-2" x="686.82" width="530.74" height="466.45"/><rect class="cls-10" x="1373.64" width="530.74" height="466.45"/><path class="cls-11" d="M477.58,356,383.84,262.3a7,7,0,0,0-4.25-1.75H269.89a14,14,0,0,0-4.76,1l-4.18,4.18a14.13,14.13,0,0,0-1,4.75V557.76a14.19,14.19,0,0,0,1,4.76l4.18,4.18a14,14,0,0,0,4.76,1h199.5a14,14,0,0,0,4.76-1l4.17-4.18a13.89,13.89,0,0,0,1-4.76V360.28A6.93,6.93,0,0,0,477.58,356ZM473,559.21l-2.18,2.18a8,8,0,0,1-1.45.24H269.89a8,8,0,0,1-1.47-.24l-2.18-2.18a7.71,7.71,0,0,1-.23-1.45V270.49a7.66,7.66,0,0,1,.23-1.45l2.18-2.19a8,8,0,0,1,1.47-.24H377v96.2h96.26V557.76A7.76,7.76,0,0,1,473,559.21Z" transform="translate(-104.26 -180.9)"/><path class="cls-11" d="M469.39,570.91H269.89a17.15,17.15,0,0,1-6.07-1.3,3.15,3.15,0,0,1-1-.66l-4.17-4.18a3.15,3.15,0,0,1-.65-1,16.86,16.86,0,0,1-1.3-6.07V270.49a16.86,16.86,0,0,1,1.3-6.06,2.93,2.93,0,0,1,.65-1l4.17-4.18a3.23,3.23,0,0,1,1-.66,17.15,17.15,0,0,1,6.06-1.29h109.7A10.11,10.11,0,0,1,386.1,260l93.74,93.73a10.13,10.13,0,0,1,2.69,6.51V557.76a17.06,17.06,0,0,1-1.29,6.07,3.19,3.19,0,0,1-.66,1L476.41,569a3.15,3.15,0,0,1-1,.66A17.08,17.08,0,0,1,469.39,570.91ZM269.21,557.66l.78.78h199.3l.78-.78V366H377a3.21,3.21,0,0,1-3.2-3.2v-93H270l-.79.78Zm111-198h93.05a3.21,3.21,0,0,1,2.88,1.8v-1.14a3.9,3.9,0,0,0-.83-2l-93.74-93.74a3.85,3.85,0,0,0-2-.82h-1.17a3.44,3.44,0,0,1,.86.61,3.2,3.2,0,0,1,.93,2.26Z" transform="translate(-104.26 -180.9)"/><path class="cls-11" d="M471.92,426.3H267.34a5.71,5.71,0,0,0-5.72,5.71v82.74a5.71,5.71,0,0,0,5.72,5.7H471.92a5.72,5.72,0,0,0,5.74-5.7V432A5.71,5.71,0,0,0,471.92,426.3Zm-137,52.45c0,7-1.61,12.36-4.86,16.08s-7.94,5.58-14.09,5.58a19.84,19.84,0,0,1-7.62-1.43v-11a10.92,10.92,0,0,0,6.78,2.29q8.06,0,8.06-12V447.23h11.73Zm42-2.13q-5.66,4.87-15.14,4.86h-5.61v18H344.44V447.23h18.45q19.75,0,19.76,16.66A15.94,15.94,0,0,1,377,476.62ZM430.89,496q-7.65,4.41-19,4.41-12.61,0-19.88-7t-7.27-19.23q0-12.33,7.95-20.08t21.14-7.77a42.74,42.74,0,0,1,14.65,2.31v11q-6-3.5-14.8-3.5a15.9,15.9,0,0,0-11.94,4.76q-4.61,4.76-4.61,12.71c0,5.37,1.38,9.52,4.13,12.47s6.49,4.4,11.18,4.4a15.57,15.57,0,0,0,6.71-1.2V479.13H408.67v-9.4h22.23Z" transform="translate(-104.26 -180.9)"/><path class="cls-11" d="M360.85,456.27h-4.63v16.29h4.63q9.42,0,9.4-8.24Q370.25,456.27,360.85,456.27Z" transform="translate(-104.26 -180.9)"/><path class="cls-11" d="M1851.22,356l-93.74-93.73a6.9,6.9,0,0,0-4.25-1.76h-109.7a14.11,14.11,0,0,0-4.76,1l-4.17,4.18a13.9,13.9,0,0,0-1,4.76V557.76a13.93,13.93,0,0,0,1,4.77l4.17,4.17a14,14,0,0,0,4.76,1H1843a14.09,14.09,0,0,0,4.76-1l4.17-4.17a13.92,13.92,0,0,0,1-4.77V360.28A6.93,6.93,0,0,0,1851.22,356Zm-4.56,203.19-2.18,2.18a7.58,7.58,0,0,1-1.45.24h-199.5a7.53,7.53,0,0,1-1.47-.24l-2.18-2.18a7.9,7.9,0,0,1-.23-1.46V270.49a7.62,7.62,0,0,1,.23-1.45l2.19-2.19a7.7,7.7,0,0,1,1.45-.24h107.13v96.2h96.27V557.76A7,7,0,0,1,1846.67,559.22Z" transform="translate(-104.26 -180.9)"/><path class="cls-11" d="M1843,570.91h-199.5a17.15,17.15,0,0,1-6-1.29,3,3,0,0,1-1-.66l-4.19-4.18a3.41,3.41,0,0,1-.65-1,17.14,17.14,0,0,1-1.3-6.07V270.49a17.14,17.14,0,0,1,1.3-6.07,3.49,3.49,0,0,1,.65-1l4.17-4.18a3.14,3.14,0,0,1,1-.66,17.14,17.14,0,0,1,6-1.28h109.7a10.1,10.1,0,0,1,6.52,2.7l93.73,93.72a10.09,10.09,0,0,1,2.69,6.52V557.76a17.11,17.11,0,0,1-1.29,6.07,3,3,0,0,1-.66,1L1850,569a3.24,3.24,0,0,1-1,.66A17.26,17.26,0,0,1,1843,570.91Zm-200.18-13.25.78.78h199.3l.78-.78V366h-93.07a3.19,3.19,0,0,1-3.19-3.2v-93H1643.63l-.79.78Zm111-198h93.07a3.19,3.19,0,0,1,2.87,1.79v-1.12a3.87,3.87,0,0,0-.82-2l-93.74-93.74a3.93,3.93,0,0,0-2-.82h-1.17a3.3,3.3,0,0,1,.85.61,3.2,3.2,0,0,1,.94,2.26Z" transform="translate(-104.26 -180.9)"/><path class="cls-11" d="M1845.58,426.29H1641a5.72,5.72,0,0,0-5.73,5.71v82.73a5.72,5.72,0,0,0,5.73,5.72h204.59a5.72,5.72,0,0,0,5.72-5.72V432A5.72,5.72,0,0,0,1845.58,426.29Zm-121.51,73.21-3.73-11.63h-18.59l-3.67,11.63h-12.76l19-52.27h14l18.59,52.27Zm77.15-43.17h-4.38V490.4h4.38v9.11H1780.7V490.4h4.38V456.33h-4.38v-9l-18,52.14H1749.4l-17.79-52.27h12.68l10.9,36.38a25.35,25.35,0,0,1,1.06,5.21h.22a29.58,29.58,0,0,1,1.14-5.35l10.83-36.24h32.79Z" transform="translate(-104.26 -180.9)"/><path class="cls-11" d="M1711.16,456.56h-.28a20.08,20.08,0,0,1-.92,4.54l-5.69,17.72h13.38L1712,461.26A23.62,23.62,0,0,1,1711.16,456.56Z" transform="translate(-104.26 -180.9)"/><path class="cls-11" d="M2538.32,879l-93.74-93.73a7,7,0,0,0-4.25-1.76h-109.7a14,14,0,0,0-4.77,1l-4.17,4.18a13.82,13.82,0,0,0-1,4.75v287.26a13.85,13.85,0,0,0,1,4.77l4.17,4.18a14,14,0,0,0,4.77,1h199.49a13.91,13.91,0,0,0,4.76-1l4.17-4.18a13.85,13.85,0,0,0,1-4.77V883.22A6.9,6.9,0,0,0,2538.32,879Zm-4.56,203.18-2.19,2.19a7.85,7.85,0,0,1-1.45.24H2330.62a8,8,0,0,1-1.47-.24l-2.18-2.19a6.8,6.8,0,0,1-.23-1.46V793.43A6.87,6.87,0,0,1,2327,792l2.18-2.19a8.57,8.57,0,0,1,1.47-.24h107.11v96.2H2534v194.93A7.7,7.7,0,0,1,2533.76,1082.15Z" transform="translate(-104.26 -180.9)"/><path class="cls-11" d="M2530.11,1093.84H2330.62a17.07,17.07,0,0,1-6.06-1.29,3.15,3.15,0,0,1-1-.66l-4.16-4.18a2.87,2.87,0,0,1-.65-.94,16.69,16.69,0,0,1-1.3-6.09V793.43a17,17,0,0,1,1.3-6.08,2.85,2.85,0,0,1,.65-.93l4.16-4.18a3.15,3.15,0,0,1,1-.67,17.27,17.27,0,0,1,6.06-1.28h109.7a10.09,10.09,0,0,1,6.51,2.7l93.74,93.73a10.06,10.06,0,0,1,2.69,6.51v197.47a17.07,17.07,0,0,1-1.3,6.07,3.4,3.4,0,0,1-.65,1l-4.19,4.18a3.24,3.24,0,0,1-.94.65A17,17,0,0,1,2530.11,1093.84Zm-200.18-13.25.79.78H2530l.78-.78V889h-93.05a3.18,3.18,0,0,1-2.26-.94,3.15,3.15,0,0,1-.94-2.26v-93H2330.72l-.79.79Zm111-198H2534a3.19,3.19,0,0,1,2.87,1.79v-1.13a4,4,0,0,0-.8-2L2442.3,787.5a4,4,0,0,0-2-.82h-1.17a3.28,3.28,0,0,1,.86.61,3.18,3.18,0,0,1,.93,2.26Z" transform="translate(-104.26 -180.9)"/><path class="cls-11" d="M2438.63,979.43a11.86,11.86,0,0,0-9.85,4.64q-3.66,4.65-3.65,12.31t3.65,12.27a11.66,11.66,0,0,0,9.54,4.52,11.84,11.84,0,0,0,9.67-4.39q3.58-4.4,3.57-12.2c0-5.41-1.16-9.64-3.47-12.65A11.26,11.26,0,0,0,2438.63,979.43Z" transform="translate(-104.26 -180.9)"/><path class="cls-11" d="M2532.66,949.24H2328.07a5.73,5.73,0,0,0-5.73,5.72v82.73a5.73,5.73,0,0,0,5.73,5.7h204.59a5.72,5.72,0,0,0,5.73-5.7V955A5.72,5.72,0,0,0,2532.66,949.24Zm-126.58,73.19h-11.62V991.16q0-5.07.42-11.18h-.28a51.42,51.42,0,0,1-1.65,6.92l-12.25,35.54h-9.62l-12.47-35.18A66.31,66.31,0,0,1,2357,980h-.33c.33,5.15.49,9.68.49,13.56v28.9h-10.6V970.17h17.24l10.68,31a45.25,45.25,0,0,1,1.86,7.48h.22a74.63,74.63,0,0,1,2.08-7.55l10.68-30.91h16.8Zm50.72-6.63c-4.78,5-11,7.55-18.69,7.55q-11.21,0-18.3-7.3T2412.74,997q0-12.4,7.18-20.05t19-7.66q11.2,0,18.1,7.34t6.9,19.32Q2464,1008.26,2456.8,1015.8Zm39.41,6.63h-13.36l-17.77-52.27h12.68l10.91,36.37a26.25,26.25,0,0,1,1,5.22h.22a28.82,28.82,0,0,1,1.14-5.36l10.82-36.23h12.33Z" transform="translate(-104.26 -180.9)"/><path class="cls-11" d="M1164.67,879l-93.74-93.73a6.86,6.86,0,0,0-4.24-1.76H957a13.89,13.89,0,0,0-4.75,1L948,788.67a13.82,13.82,0,0,0-1,4.76V1080.7a13.91,13.91,0,0,0,1,4.75l4.18,4.18a13.92,13.92,0,0,0,4.75,1h199.5a14,14,0,0,0,4.76-1l4.17-4.18a13.92,13.92,0,0,0,1-4.75V883.21A6.91,6.91,0,0,0,1164.67,879Zm-4.54,203.18-2.19,2.19a7.77,7.77,0,0,1-1.45.23H957a7.92,7.92,0,0,1-1.45-.23l-2.18-2.19a7.79,7.79,0,0,1-.23-1.45V793.43a7.81,7.81,0,0,1,.23-1.46l2.18-2.19a7.91,7.91,0,0,1,1.45-.23H1064.1v96.2h96.26V1080.7A7.72,7.72,0,0,1,1160.13,1082.15Z" transform="translate(-104.26 -180.9)"/><path class="cls-11" d="M1156.48,1093.85H957a17,17,0,0,1-6.06-1.3,3.17,3.17,0,0,1-1-.66l-4.17-4.18a3.22,3.22,0,0,1-.66-1,17.14,17.14,0,0,1-1.3-6.05V793.43a17.07,17.07,0,0,1,1.3-6.07,3.22,3.22,0,0,1,.66-1l4.17-4.18a3.34,3.34,0,0,1,1-.66,17.14,17.14,0,0,1,6-1.29h109.72a10.1,10.1,0,0,1,6.51,2.7l93.73,93.73a10,10,0,0,1,2.71,6.5V1080.7a17.41,17.41,0,0,1-1.29,6,3.26,3.26,0,0,1-.66,1l-4.19,4.18a3,3,0,0,1-1,.66A17,17,0,0,1,1156.48,1093.85ZM956.3,1080.6l.78.77h199.3l.79-.78V888.95H1064.1a3.19,3.19,0,0,1-3.2-3.2v-93H957.08l-.78.77Zm111-198h93.05a3.2,3.2,0,0,1,2.87,1.79v-1.12a4,4,0,0,0-.82-2l-93.74-93.74a4,4,0,0,0-2-.82h-1.19a3.21,3.21,0,0,1,1.8,2.88Z" transform="translate(-104.26 -180.9)"/><path class="cls-11" d="M1001.63,979.75h-5.75v33.13h5.83c5.1,0,9.1-1.52,12-4.59s4.35-7.23,4.35-12.51q0-7.46-4.33-11.75T1001.63,979.75Z" transform="translate(-104.26 -180.9)"/><path class="cls-11" d="M1059.81,979.42a11.87,11.87,0,0,0-9.85,4.65q-3.64,4.64-3.65,12.3t3.65,12.29a12.58,12.58,0,0,0,19.22.13c2.39-2.93,3.56-7,3.56-12.19q0-8.13-3.46-12.65A11.27,11.27,0,0,0,1059.81,979.42Z" transform="translate(-104.26 -180.9)"/><path class="cls-11" d="M1159,949.24H954.45a5.73,5.73,0,0,0-5.74,5.72v82.73a5.73,5.73,0,0,0,5.74,5.7H1159a5.71,5.71,0,0,0,5.73-5.7V955A5.71,5.71,0,0,0,1159,949.24Zm-136.14,65.9q-7.62,7.29-20.26,7.29H984.1V970.17h18.51q27.87,0,27.85,25.47Q1030.47,1007.85,1022.88,1015.14Zm55.11.66q-7.18,7.55-18.68,7.55-11.23,0-18.31-7.3t-7.07-19q0-12.39,7.18-20t19-7.66q11.2,0,18.11,7.33t6.9,19.32Q1085.14,1008.25,1078,1015.79Zm51.37-33.24a22.82,22.82,0,0,0-12-3.14q-7.37,0-11.89,4.63T1101,996.59c0,5,1.43,9.08,4.26,12.08s6.67,4.5,11.48,4.5a24.61,24.61,0,0,0,12.62-3.36v10.76q-5.72,2.77-15,2.76-12,0-18.91-7.06t-6.89-18.84q0-12.55,7.74-20.35t20.11-7.8a37.53,37.53,0,0,1,12.9,1.93Z" transform="translate(-104.26 -180.9)"/><path class="cls-11" d="M1851.5,1401.94l-93.74-93.73a6.93,6.93,0,0,0-4.25-1.76H1643.8a14,14,0,0,0-4.76,1l-4.17,4.18a13.82,13.82,0,0,0-1,4.76v287.29a13.81,13.81,0,0,0,1,4.75l4.17,4.18a13.9,13.9,0,0,0,4.76,1h199.49a13.77,13.77,0,0,0,4.76-1l4.18-4.18a14.1,14.1,0,0,0,1-4.75V1406.18A6.89,6.89,0,0,0,1851.5,1401.94Zm-4.55,203.2-2.18,2.18a7.83,7.83,0,0,1-1.47.23H1643.8a7.56,7.56,0,0,1-1.45-.23l-2.19-2.18a7.88,7.88,0,0,1-.23-1.45V1316.4a7.76,7.76,0,0,1,.23-1.46l2.19-2.19a7.6,7.6,0,0,1,1.45-.23h107.11v96.2h96.27v195A8.15,8.15,0,0,1,1846.94,1605.14Z" transform="translate(-104.26 -180.9)"/><path class="cls-11" d="M1843.29,1616.84H1643.8a17.11,17.11,0,0,1-6.06-1.3,3.13,3.13,0,0,1-1-.66l-4.18-4.17a2.94,2.94,0,0,1-.65-1,17,17,0,0,1-1.3-6V1316.4a17.07,17.07,0,0,1,1.3-6.07,3.18,3.18,0,0,1,.65-1l4.17-4.18a3.23,3.23,0,0,1,1-.66,17,17,0,0,1,6-1.29h109.7a10.1,10.1,0,0,1,6.52,2.7l93.73,93.73a10.07,10.07,0,0,1,2.69,6.5v197.51a17.14,17.14,0,0,1-1.29,6,3.12,3.12,0,0,1-.66,1l-4.17,4.17a3.29,3.29,0,0,1-1,.66A17.17,17.17,0,0,1,1843.29,1616.84Zm-200.17-13.26.78.78h199.3l.78-.78V1411.92h-93.07a3.19,3.19,0,0,1-3.19-3.2v-93H1643.89l-.77.77Zm111-198.07h93.07a3.21,3.21,0,0,1,2.87,1.79v-1.12a4,4,0,0,0-.82-2l-93.74-93.74a4,4,0,0,0-2-.82h-1.19a3.19,3.19,0,0,1,1.8,2.88Z" transform="translate(-104.26 -180.9)"/><path class="cls-11" d="M1851.49,879l-93.73-93.73a7,7,0,0,0-4.25-1.76H1643.8a14,14,0,0,0-4.76,1l-4.17,4.18a13.84,13.84,0,0,0-1,4.76V1080.7a13.92,13.92,0,0,0,1,4.75l4.17,4.18a14,14,0,0,0,4.76,1h199.5a14.05,14.05,0,0,0,4.76-1l4.17-4.18a13.91,13.91,0,0,0,1-4.75V883.21A6.91,6.91,0,0,0,1851.49,879Zm-4.55,203.18-2.18,2.19a7.76,7.76,0,0,1-1.45.23H1643.8a7.93,7.93,0,0,1-1.45-.23l-2.18-2.19a7.79,7.79,0,0,1-.23-1.45V793.43a7.74,7.74,0,0,1,.23-1.46l2.18-2.19a7.92,7.92,0,0,1,1.45-.23h107.13v96.2h96.26V1080.7A8,8,0,0,1,1846.94,1082.15Z" transform="translate(-104.26 -180.9)"/><path class="cls-11" d="M1843.3,1093.85H1643.8a17,17,0,0,1-6.06-1.3,3.23,3.23,0,0,1-1-.66l-4.17-4.18a3.4,3.4,0,0,1-.65-1,17.12,17.12,0,0,1-1.3-6.06V793.43a16.8,16.8,0,0,1,1.31-6.07,3.07,3.07,0,0,1,.64-.94l4.17-4.18a3.16,3.16,0,0,1,1-.67,17.14,17.14,0,0,1,6-1.28h109.72A10.17,10.17,0,0,1,1760,783l93.73,93.74a10,10,0,0,1,2.71,6.5V1080.7a17.08,17.08,0,0,1-1.3,6.05,3.18,3.18,0,0,1-.65,1l-4.18,4.18a3.24,3.24,0,0,1-.94.66A17.09,17.09,0,0,1,1843.3,1093.85Zm-200.18-13.26.78.78h199.3l.78-.78V888.95h-93.05a3.19,3.19,0,0,1-3.2-3.2v-93H1643.9l-.78.77Zm111-198h93.07a3.18,3.18,0,0,1,2.87,1.8v-1.14a4,4,0,0,0-.82-2l-93.74-93.74a4,4,0,0,0-2-.82h-1.2a3.16,3.16,0,0,1,.87.62,3.2,3.2,0,0,1,.94,2.26Z" transform="translate(-104.26 -180.9)"/><path class="cls-11" d="M1845.84,949.24H1641.26a5.72,5.72,0,0,0-5.73,5.72v82.73a5.72,5.72,0,0,0,5.73,5.7h204.58a5.72,5.72,0,0,0,5.73-5.7V955A5.72,5.72,0,0,0,1845.84,949.24Zm-141.29,73.21h-11.82V979.76h-14.84v-9.58h41.56v9.58h-14.9Zm48.51,0-9-17a14.36,14.36,0,0,1-1.06-3.5h-.14a27.36,27.36,0,0,1-1.21,3.65l-9,16.87h-14l16.65-26.13L1720,970.18h14.33l7.46,15.67a26.69,26.69,0,0,1,1.57,4.41h.15c.29-1,.84-2.54,1.63-4.56l8.31-15.52h13.13l-15.67,25.91,16.11,26.35Zm56.15-42.69h-14.9v42.69h-11.82V979.76h-14.84v-9.58h41.56Z" transform="translate(-104.26 -180.9)"/><path class="cls-11" d="M1164.67,1401.94l-93.73-93.72a7,7,0,0,0-4.25-1.76H957a14,14,0,0,0-4.76,1l-4.17,4.18a13.83,13.83,0,0,0-1,4.76v287.26a13.93,13.93,0,0,0,1,4.76l4.17,4.18a14,14,0,0,0,4.76,1h199.49a14.06,14.06,0,0,0,4.77-1l4.17-4.18a13.91,13.91,0,0,0,1-4.76V1406.19A7,7,0,0,0,1164.67,1401.94Zm-4.56,203.18-2.18,2.19a7.87,7.87,0,0,1-1.47.23H957a7.78,7.78,0,0,1-1.45-.23l-2.18-2.19a6.91,6.91,0,0,1-.24-1.45V1316.41a7,7,0,0,1,.24-1.46l2.18-2.19a7.77,7.77,0,0,1,1.45-.23H1064.1v96.2h96.27v194.94A7.88,7.88,0,0,1,1160.11,1605.13Z" transform="translate(-104.26 -180.9)"/><path class="cls-11" d="M1156.47,1616.83H957a17,17,0,0,1-6.07-1.3,3.07,3.07,0,0,1-.94-.66l-4.18-4.18a3.15,3.15,0,0,1-.65-1,17.13,17.13,0,0,1-1.3-6.07V1316.41a17,17,0,0,1,1.3-6.07,3,3,0,0,1,.65-.94l4.17-4.18a3.24,3.24,0,0,1,1-.66,17.21,17.21,0,0,1,6.06-1.29h109.72a10.17,10.17,0,0,1,6.51,2.69l93.73,93.73a10.08,10.08,0,0,1,2.7,6.51v197.48a17.45,17.45,0,0,1-1.29,6,3.2,3.2,0,0,1-.66,1l-4.18,4.18a3,3,0,0,1-1,.66A17,17,0,0,1,1156.47,1616.83ZM956.3,1603.57l.78.78h199.3l.78-.78V1411.93h-93.07a3.19,3.19,0,0,1-3.19-3.2v-93H957.08l-.78.78Zm111-198h93.07a3.18,3.18,0,0,1,2.87,1.8v-1.14a4,4,0,0,0-.83-2l-93.73-93.73a4,4,0,0,0-2-.82h-1.19a3.29,3.29,0,0,1,.85.62,3.2,3.2,0,0,1,.94,2.26Z" transform="translate(-104.26 -180.9)"/><path class="cls-11" d="M1088.82,1502.2h-4.64v16.3h4.64q9.4,0,9.39-8.24C1098.21,1504.9,1095.08,1502.2,1088.82,1502.2Z" transform="translate(-104.26 -180.9)"/><path class="cls-11" d="M1159,1472.22H954.44a5.72,5.72,0,0,0-5.73,5.72v82.73a5.71,5.71,0,0,0,5.73,5.7H1159a5.71,5.71,0,0,0,5.73-5.7v-82.73A5.72,5.72,0,0,0,1159,1472.22Zm-114.08,73.21h-42.11v-6.78l26.79-35.9h-24.85v-9.59h40.1v6.6l-26.22,36.11h26.28Zm21.89-43.16h-4.36v34h4.36v9.11h-20.52v-9.11h4.38v-34h-4.38v-9.11h20.52Zm38.11,20.29q-5.66,4.87-15.16,4.87h-5.61v18h-11.76v-52.27h18.44q19.75,0,19.76,16.66A16,16,0,0,1,1104.94,1522.56Z" transform="translate(-104.26 -180.9)"/><path class="cls-11" d="M477.85,879l-93.73-93.72a6.93,6.93,0,0,0-4.25-1.76H270.15a14.25,14.25,0,0,0-4.76,1l-4.17,4.19a13.84,13.84,0,0,0-1,4.75v287.26a13.94,13.94,0,0,0,1,4.77l4.17,4.17a14.11,14.11,0,0,0,4.76,1H469.65a14,14,0,0,0,4.76-1l4.18-4.17a14.24,14.24,0,0,0,1-4.77V883.23A7,7,0,0,0,477.85,879Zm-4.56,203.19-2.18,2.18a8.59,8.59,0,0,1-1.46.24H270.15a8.64,8.64,0,0,1-1.45-.24l-2.18-2.18a7.74,7.74,0,0,1-.23-1.46V793.43a7.69,7.69,0,0,1,.23-1.45l2.18-2.19a7.49,7.49,0,0,1,1.45-.24H377.27v96.2h96.26v194.94A7.28,7.28,0,0,1,473.29,1082.15Z" transform="translate(-104.26 -180.9)"/><path class="cls-11" d="M469.65,1093.85H270.15a17,17,0,0,1-6.06-1.3,3.14,3.14,0,0,1-1-.65l-4.17-4.17a3.22,3.22,0,0,1-.66-1,17.11,17.11,0,0,1-1.29-6.07V793.43a16.78,16.78,0,0,1,1.3-6.06,2.93,2.93,0,0,1,.65-1l4.17-4.19a3.06,3.06,0,0,1,1-.67,17.25,17.25,0,0,1,6-1.28H379.86a10.17,10.17,0,0,1,6.51,2.69l93.74,93.74a10.15,10.15,0,0,1,2.7,6.53v197.46a17.44,17.44,0,0,1-1.28,6.05,3.2,3.2,0,0,1-.67,1l-4.18,4.17a3,3,0,0,1-1,.65A17,17,0,0,1,469.65,1093.85ZM269.48,1080.6l.77.78h199.3l.78-.77V888.95H377.27a3.21,3.21,0,0,1-3.2-3.2v-93H270.25l-.78.78Zm111-198h93.05a3.2,3.2,0,0,1,2.88,1.81v-1.13a3.91,3.91,0,0,0-.84-2L381.85,787.5a4,4,0,0,0-2-.82h-1.19a3.19,3.19,0,0,1,1.8,2.88Z" transform="translate(-104.26 -180.9)"/><path class="cls-11" d="M367.73,979.77H362v33.14h5.83q7.65,0,12-4.59t4.34-12.52q0-7.45-4.31-11.76T367.73,979.77Z" transform="translate(-104.26 -180.9)"/><path class="cls-11" d="M322.68,979.22h-4.62v16.29h4.62q9.42,0,9.42-8.24Q332.09,979.21,322.68,979.22Z" transform="translate(-104.26 -180.9)"/><path class="cls-11" d="M472.2,949.25H267.61a5.71,5.71,0,0,0-5.72,5.7v82.73a5.71,5.71,0,0,0,5.72,5.71H472.2a5.71,5.71,0,0,0,5.72-5.71V955A5.71,5.71,0,0,0,472.2,949.25ZM338.82,999.58q-5.66,4.86-15.15,4.86h-5.61v18H306.28V970.18h18.45q19.75,0,19.75,16.66A16,16,0,0,1,338.82,999.58ZM389,1015.17q-7.6,7.28-20.25,7.29H350.2V970.18h18.51q27.85,0,27.85,25.48Q396.56,1007.88,389,1015.17Zm44.56-35.4H415.08V992.6h17v9.55h-17v20.31H403.3V970.18h30.22Z" transform="translate(-104.26 -180.9)"/><path class="cls-11" d="M477.86,1401.95l-93.73-93.73a7,7,0,0,0-4.26-1.75H270.18a13.83,13.83,0,0,0-4.77,1l-4.18,4.18a14.17,14.17,0,0,0-1,4.75v287.26a14.18,14.18,0,0,0,1,4.77l4.18,4.17a13.82,13.82,0,0,0,4.77,1H469.66a13.88,13.88,0,0,0,4.76-1l4.17-4.17a14.2,14.2,0,0,0,1-4.77V1406.2A6.93,6.93,0,0,0,477.86,1401.95Zm-4.54,203.18-2.19,2.19a7.92,7.92,0,0,1-1.45.23H270.18a7.57,7.57,0,0,1-1.47-.23l-2.18-2.18a7.89,7.89,0,0,1-.23-1.47V1316.4a7.86,7.86,0,0,1,.23-1.45l2.18-2.18a7.17,7.17,0,0,1,1.47-.24H377.29v96.19h96.27v194.94A8.91,8.91,0,0,1,473.31,1605.12Z" transform="translate(-104.26 -180.9)"/><path class="cls-11" d="M469.66,1616.82H270.18a17,17,0,0,1-6.09-1.31,3.12,3.12,0,0,1-.93-.64l-4.2-4.17a3.28,3.28,0,0,1-.68-1,17.39,17.39,0,0,1-1.28-6.05V1316.4a17.12,17.12,0,0,1,1.29-6,3.08,3.08,0,0,1,.66-1l4.18-4.18a3.25,3.25,0,0,1,.93-.64,17,17,0,0,1,6.1-1.3H379.87a10.13,10.13,0,0,1,6.51,2.68l93.75,93.75a10.14,10.14,0,0,1,2.68,6.51v197.47a17.4,17.4,0,0,1-1.28,6.05,3.24,3.24,0,0,1-.66,1l-4.18,4.17a3.12,3.12,0,0,1-1,.66A17.08,17.08,0,0,1,469.66,1616.82ZM269.5,1603.58l.75.76H469.57l.77-.77V1411.93H377.28a3.19,3.19,0,0,1-3.2-3.2v-93H270.26l-.77.77Zm111-198.05h93.08a3.2,3.2,0,0,1,2.87,1.79v-1.12a3.93,3.93,0,0,0-.82-2l-93.74-93.73a3.89,3.89,0,0,0-2-.82h-1.17a3.16,3.16,0,0,1,1.79,2.87Z" transform="translate(-104.26 -180.9)"/><path class="cls-11" d="M401.53,1502.39a11.83,11.83,0,0,0-9.84,4.66c-2.44,3.09-3.64,7.19-3.64,12.29s1.2,9.27,3.64,12.29a11.71,11.71,0,0,0,9.57,4.52,11.84,11.84,0,0,0,9.66-4.4c2.36-2.93,3.56-7,3.56-12.2q0-8.12-3.47-12.65A11.29,11.29,0,0,0,401.53,1502.39Z" transform="translate(-104.26 -180.9)"/><path class="cls-11" d="M472.2,1472.21H267.62a5.72,5.72,0,0,0-5.72,5.72v82.73a5.71,5.71,0,0,0,5.72,5.71H472.2a5.7,5.7,0,0,0,5.72-5.71v-82.73A5.71,5.71,0,0,0,472.2,1472.21Zm-138.74,30h-4.38v34h4.38v9.12H312.94v-9.12h4.36v-34h-4.36v-9.12h20.52Zm37.17,35.81a13.59,13.59,0,0,1-4.52,4.82,19.51,19.51,0,0,1-6.61,2.64,38.13,38.13,0,0,1-8,.8,43.23,43.23,0,0,1-8.18-.73,24.78,24.78,0,0,1-6.74-2.18v-11.67a22.37,22.37,0,0,0,6.89,4A22.07,22.07,0,0,0,351,1537a17.49,17.49,0,0,0,3.88-.38,9.38,9.38,0,0,0,2.77-1.12,4.9,4.9,0,0,0,1.66-1.68,4.23,4.23,0,0,0,.55-2.09A4.48,4.48,0,0,0,359,1529a9.68,9.68,0,0,0-2.4-2.23,24.52,24.52,0,0,0-3.6-2c-1.38-.63-2.87-1.28-4.47-1.94q-6.14-2.54-9.12-6.23a13.54,13.54,0,0,1-3-8.89,14.11,14.11,0,0,1,1.65-7,13.82,13.82,0,0,1,4.45-4.84,20.46,20.46,0,0,1,6.56-2.79,33.93,33.93,0,0,1,7.86-.89,47.47,47.47,0,0,1,7.23.49,28.83,28.83,0,0,1,5.83,1.51v10.91a17.32,17.32,0,0,0-2.87-1.61,21.58,21.58,0,0,0-3.19-1.15,24.46,24.46,0,0,0-3.25-.67,23.1,23.1,0,0,0-3.09-.22,16.19,16.19,0,0,0-3.64.38,9.3,9.3,0,0,0-2.78,1.08,5.33,5.33,0,0,0-1.75,1.65,4,4,0,0,0-.61,2.17,4.12,4.12,0,0,0,.68,2.35,8.06,8.06,0,0,0,2,2,21.67,21.67,0,0,0,3.1,1.82c1.21.6,2.59,1.21,4.12,1.84a48.06,48.06,0,0,1,5.63,2.78,20.29,20.29,0,0,1,4.29,3.34,12.9,12.9,0,0,1,2.72,4.24,16.79,16.79,0,0,1-.69,12.9Zm49.08.72q-7.18,7.55-18.69,7.54c-7.48,0-13.59-2.43-18.28-7.31s-7.08-11.22-7.08-19q0-12.39,7.2-20t19-7.66c7.44,0,13.49,2.44,18.08,7.32s6.92,11.33,6.92,19.32Q426.87,1531.23,419.71,1538.78Z" transform="translate(-104.26 -180.9)"/><path class="cls-11" d="M1164.4,356l-93.74-93.73a7,7,0,0,0-4.25-1.75H956.71a14,14,0,0,0-4.77,1l-4.17,4.18a13.82,13.82,0,0,0-1,4.75V557.76a13.88,13.88,0,0,0,1,4.76l4.17,4.18a14,14,0,0,0,4.77,1h199.5a14,14,0,0,0,4.76-1l4.17-4.18a13.88,13.88,0,0,0,1-4.76V360.28A7,7,0,0,0,1164.4,356Zm-4.55,203.19-2.18,2.18a8,8,0,0,1-1.45.24H956.71a8,8,0,0,1-1.47-.24l-2.18-2.18a7.84,7.84,0,0,1-.23-1.46V270.49a7.66,7.66,0,0,1,.23-1.45l2.18-2.19a8,8,0,0,1,1.47-.24h107.13v96.2h96.25V557.76A7.89,7.89,0,0,1,1159.85,559.22Z" transform="translate(-104.26 -180.9)"/><path class="cls-11" d="M1156.21,570.91H956.71a17.09,17.09,0,0,1-6.07-1.3,3,3,0,0,1-1-.66l-4.17-4.18a3.21,3.21,0,0,1-.65-.94,17.07,17.07,0,0,1-1.3-6.07V270.49a17,17,0,0,1,1.3-6.07,3.12,3.12,0,0,1,.65-.94l4.17-4.18a3.05,3.05,0,0,1,1-.67,17.27,17.27,0,0,1,6.06-1.28h109.7a10.13,10.13,0,0,1,6.51,2.69l93.74,93.75a10.13,10.13,0,0,1,2.69,6.51V557.76a17.05,17.05,0,0,1-1.29,6.07,3.19,3.19,0,0,1-.66,1l-4.17,4.18a3.27,3.27,0,0,1-1,.66A17,17,0,0,1,1156.21,570.91ZM956,557.66l.79.78h199.3l.77-.77V366h-93.05a3.21,3.21,0,0,1-3.2-3.2v-93H956.81l-.79.78Zm111-198h93.05a3.21,3.21,0,0,1,2.88,1.81v-1.14a3.92,3.92,0,0,0-.83-2l-93.73-93.74a4,4,0,0,0-2-.82h-1.17a3.44,3.44,0,0,1,.86.61,3.2,3.2,0,0,1,.93,2.26Z" transform="translate(-104.26 -180.9)"/><path class="cls-11" d="M1000.92,456.27h-4.63v16.29h4.63c6.26,0,9.42-2.74,9.42-8.23S1007.18,456.27,1000.92,456.27Z" transform="translate(-104.26 -180.9)"/><path class="cls-11" d="M1158.74,426.3H954.16a5.72,5.72,0,0,0-5.73,5.72v82.74a5.71,5.71,0,0,0,5.73,5.7h204.58a5.71,5.71,0,0,0,5.73-5.7V432A5.72,5.72,0,0,0,1158.74,426.3Zm-141.68,50.32q-5.68,4.88-15.16,4.87h-5.61v18H984.52V447.23H1003q19.77,0,19.76,16.66A16,16,0,0,1,1017.06,476.62Zm58.4,22.88h-11.88L1042,466.67a48.72,48.72,0,0,1-2.63-4.35h-.14q.29,2.77.29,8.46V499.5h-11.13V447.23h12.69L1061.86,479c1,1.43,1.82,2.85,2.63,4.27h.15a54,54,0,0,1-.29-7.19v-28.9h11.11Zm52.93-3.5q-7.66,4.42-19,4.41-12.59,0-19.88-7t-7.27-19.23q0-12.33,7.94-20.08t21.15-7.77a42.74,42.74,0,0,1,14.65,2.31v11q-6-3.51-14.8-3.51a15.89,15.89,0,0,0-11.93,4.76q-4.63,4.76-4.62,12.71c0,5.37,1.38,9.51,4.13,12.47s6.48,4.4,11.18,4.4a15.57,15.57,0,0,0,6.71-1.2v-10.2h-10.46v-9.41h22.24Z" transform="translate(-104.26 -180.9)"/><path class="cls-11" d="M2442.94,456.26h-4.63v16.29h4.63q9.4,0,9.4-8.24Q2452.35,456.25,2442.94,456.26Z" transform="translate(-104.26 -180.9)"/><path class="cls-11" d="M2532.38,426.29H2327.79a5.72,5.72,0,0,0-5.72,5.71v82.73a5.72,5.72,0,0,0,5.72,5.72h204.59a5.71,5.71,0,0,0,5.73-5.72V432A5.72,5.72,0,0,0,2532.38,426.29Zm-115.79,73.2H2405V468.21c0-3.37.15-7.11.45-11.19h-.29a56.55,56.55,0,0,1-1.65,6.93l-12.25,35.54h-9.62l-12.47-35.18a69.63,69.63,0,0,1-1.65-7.29h-.32q.48,7.72.47,13.56v28.91H2357V447.22h17.24l10.68,31a42.56,42.56,0,0,1,1.85,7.47h.23a74.38,74.38,0,0,1,2.08-7.55l10.68-30.91h16.8Zm42.47-22.88q-5.66,4.87-15.15,4.87h-5.61v18h-11.78V447.22H2445q19.75,0,19.75,16.66A16,16,0,0,1,2459.07,476.61Zm38.72,19.52q-5.36,4.27-14.8,4.26-8.1,0-13.15-2.63v-10a20.22,20.22,0,0,0,12.25,3.82,11,11,0,0,0,6.86-1.89,6.28,6.28,0,0,0,2.46-5.28,6,6,0,0,0-3-5.4q-3-1.89-8.36-1.89h-4.71v-8.82h4.34q10.2,0,10.21-6.79c0-4.24-2.62-6.38-7.83-6.38a17.9,17.9,0,0,0-10.21,3.39v-9.41a28.32,28.32,0,0,1,12.82-2.77q8,0,12.49,3.6a11.52,11.52,0,0,1,4.47,9.38q0,10.24-10.39,12.83v.18a14,14,0,0,1,8.74,4,11.35,11.35,0,0,1,3.22,8.19A14,14,0,0,1,2497.79,496.14Z" transform="translate(-104.26 -180.9)"/><path class="cls-11" d="M2538,356l-93.73-93.73a7,7,0,0,0-4.25-1.76H2330.34a14.17,14.17,0,0,0-4.76,1l-4.18,4.18a14.18,14.18,0,0,0-1,4.76V557.76a14.21,14.21,0,0,0,1,4.77l4.18,4.17a14,14,0,0,0,4.76,1h199.5a14,14,0,0,0,4.76-1l4.17-4.17a13.93,13.93,0,0,0,1-4.77V360.28A6.93,6.93,0,0,0,2538,356Zm-4.56,203.19-2.18,2.18a7.57,7.57,0,0,1-1.45.24h-199.5a7.53,7.53,0,0,1-1.47-.24l-2.17-2.18a7,7,0,0,1-.24-1.46V270.49a6.83,6.83,0,0,1,.24-1.45l2.17-2.19a8,8,0,0,1,1.47-.24h107.11v96.2h96.27V557.76A8,8,0,0,1,2533.48,559.22Z" transform="translate(-104.26 -180.9)"/><path class="cls-11" d="M2529.84,570.9h-199.5a17.28,17.28,0,0,1-6.06-1.29,3.12,3.12,0,0,1-1-.66l-4.18-4.18a3.48,3.48,0,0,1-.66-1,17.39,17.39,0,0,1-1.29-6.07V270.49a17.39,17.39,0,0,1,1.29-6.07,3.48,3.48,0,0,1,.66-1l4.18-4.18a3,3,0,0,1,1-.66,17.27,17.27,0,0,1,6.06-1.28h109.72a10.08,10.08,0,0,1,6.51,2.69l93.73,93.73a10.11,10.11,0,0,1,2.71,6.52V557.76a17.42,17.42,0,0,1-1.29,6.05,3.31,3.31,0,0,1-.66,1l-4.18,4.17a3.07,3.07,0,0,1-1,.66A17.15,17.15,0,0,1,2529.84,570.9Zm-200.18-13.24.78.77h199.3l.78-.78V366h-93.07a3.21,3.21,0,0,1-3.2-3.2v-93H2330.44l-.78.78Zm111-198h93.07a3.19,3.19,0,0,1,2.87,1.79v-1.12a4,4,0,0,0-.83-2L2442,264.56a3.94,3.94,0,0,0-2-.82h-1.19a3.28,3.28,0,0,1,.86.61,3.18,3.18,0,0,1,.93,2.26Z" transform="translate(-104.26 -180.9)"/><path class="cls-11" d="M2487.78,1437.13l-77.57-77.58a8.35,8.35,0,0,0-5.39-2.23H2314a14.25,14.25,0,0,0-5,1.06,2.67,2.67,0,0,0-.8.55l-3.46,3.46a2.8,2.8,0,0,0-.54.79,14.13,14.13,0,0,0-1.08,5v237.73a14.13,14.13,0,0,0,1.08,5,2.59,2.59,0,0,0,.55.79l3.45,3.46a2.84,2.84,0,0,0,.79.55,14.22,14.22,0,0,0,5,1.07h165.1a14.16,14.16,0,0,0,5-1.07,2.78,2.78,0,0,0,.8-.55l3.45-3.46a2.48,2.48,0,0,0,.55-.79,14.39,14.39,0,0,0,1.07-5V1442.51A8.33,8.33,0,0,0,2487.78,1437.13Zm-85.1,10.12h77v158.6l-.64.64H2314.11l-.64-.64V1368.29l.64-.64H2400v77A2.64,2.64,0,0,0,2402.68,1447.26Z" transform="translate(-104.26 -180.9)"/><path class="cls-11" d="M2555.36,1383.07l-77.57-77.57a8.35,8.35,0,0,0-5.39-2.24h-90.79a14.12,14.12,0,0,0-5,1.07,2.68,2.68,0,0,0-.8.55l-3.46,3.46a2.69,2.69,0,0,0-.54.78,14.17,14.17,0,0,0-1.07,5v38H2381v-38l.64-.64h85.93v77a2.64,2.64,0,0,0,2.65,2.65h77v158.6l-.65.64h-52.27v10.34h52.36a14.23,14.23,0,0,0,5-1.07,2.82,2.82,0,0,0,.79-.55l3.45-3.46a2.4,2.4,0,0,0,.55-.8,14.11,14.11,0,0,0,1.07-5V1388.45A8.33,8.33,0,0,0,2555.36,1383.07Z" transform="translate(-104.26 -180.9)"/><path class="cls-12" d="M673.91,1801.43H718v8.86h-33.5v27.19h31v8.74h-31v37H673.91Z" transform="translate(-104.26 -180.9)"/><path class="cls-12" d="M743.59,1801.43v81.81H733v-81.81Z" transform="translate(-104.26 -180.9)"/><path class="cls-12" d="M762,1801.43h10.56v73h35v8.86H762Z" transform="translate(-104.26 -180.9)"/><path class="cls-12" d="M861.71,1844.89h-31.8v29.5h35.45v8.86h-46v-81.81h44.18v8.86H829.91v25.86h31.8Z" transform="translate(-104.26 -180.9)"/><path class="cls-12" d="M915.37,1810.42H890.49v-9h60.57v9h-25v72.83H915.37Z" transform="translate(-104.26 -180.9)"/><path class="cls-12" d="M981.78,1883.25v-34.72l-25.86-47.1h12L979.47,1824c3.16,6.19,5.58,11.17,8.13,16.87h.24c2.31-5.34,5.1-10.68,8.25-16.87l11.77-22.58h12l-27.43,47v34.84Z" transform="translate(-104.26 -180.9)"/><path class="cls-12" d="M1028.4,1802.41a122.36,122.36,0,0,1,20.27-1.58c10.44,0,18.09,2.43,22.94,6.8,4.49,3.88,7.16,9.83,7.16,17.12s-2.19,13.23-6.31,17.48c-5.58,5.95-14.69,9-25,9a36.31,36.31,0,0,1-8.5-.73v32.78H1028.4Zm10.56,39.45a35.37,35.37,0,0,0,8.74.85c12.75,0,20.51-6.19,20.51-17.48,0-10.8-7.65-16-19.3-16a44.26,44.26,0,0,0-10,.85Z" transform="translate(-104.26 -180.9)"/><path class="cls-12" d="M1135.34,1844.89h-31.8v29.5H1139v8.86h-46v-81.81h44.18v8.86h-33.62v25.86h31.8Z" transform="translate(-104.26 -180.9)"/><path class="cls-12" d="M1189,1801.43v81.81h-10.56v-81.81Z" transform="translate(-104.26 -180.9)"/><path class="cls-12" d="M1264.63,1880.58c-3.88,1.94-11.65,3.88-21.61,3.88-23.06,0-40.42-14.57-40.42-41.39,0-25.61,17.36-43,42.73-43,10.2,0,16.63,2.19,19.42,3.64l-2.55,8.62a38.47,38.47,0,0,0-16.51-3.4c-19.18,0-31.93,12.26-31.93,33.74,0,20,11.53,32.9,31.44,32.9,6.43,0,13-1.33,17.24-3.4Z" transform="translate(-104.26 -180.9)"/><path class="cls-12" d="M1345.24,1841.49c0,28.16-17.12,43.09-38,43.09-21.61,0-36.78-16.75-36.78-41.51,0-26,16.14-43,38-43C1330.79,1800.1,1345.24,1817.21,1345.24,1841.49Zm-63.49,1.33c0,17.48,9.47,33.14,26.1,33.14s26.22-15.41,26.22-34c0-16.27-8.5-33.26-26.1-33.26S1281.75,1824.86,1281.75,1842.83Z" transform="translate(-104.26 -180.9)"/><path class="cls-12" d="M1359,1883.25v-81.81h11.53l26.22,41.39a231.34,231.34,0,0,1,14.69,26.59l.24-.12c-1-10.93-1.21-20.88-1.21-33.62v-34.23h10v81.81H1409.7l-26-41.51a259.69,259.69,0,0,1-15.3-27.31l-.36.12c.61,10.32.85,20.15.85,33.75v35Z" transform="translate(-104.26 -180.9)"/><path class="cls-12" d="M1521.75,1880.58c-3.88,1.94-11.65,3.88-21.61,3.88-23.06,0-40.42-14.57-40.42-41.39,0-25.61,17.36-43,42.73-43,10.2,0,16.63,2.19,19.42,3.64l-2.55,8.62a38.47,38.47,0,0,0-16.51-3.4c-19.18,0-31.93,12.26-31.93,33.74,0,20,11.53,32.9,31.44,32.9,6.43,0,13-1.33,17.24-3.4Z" transform="translate(-104.26 -180.9)"/><path class="cls-12" d="M1602.36,1841.49c0,28.16-17.12,43.09-38,43.09-21.61,0-36.78-16.75-36.78-41.51,0-26,16.15-43,38-43C1587.91,1800.1,1602.36,1817.21,1602.36,1841.49Zm-63.49,1.33c0,17.48,9.47,33.14,26.1,33.14s26.22-15.41,26.22-34c0-16.27-8.5-33.26-26.1-33.26S1538.87,1824.86,1538.87,1842.83Z" transform="translate(-104.26 -180.9)"/><path class="cls-12" d="M1616.08,1801.43h10.56v73h35v8.86h-45.52Z" transform="translate(-104.26 -180.9)"/><path class="cls-12" d="M1673.38,1801.43h10.56v73h35v8.86h-45.52Z" transform="translate(-104.26 -180.9)"/><path class="cls-12" d="M1773,1844.89h-31.8v29.5h35.45v8.86h-46v-81.81h44.19v8.86h-33.62v25.86H1773Z" transform="translate(-104.26 -180.9)"/><path class="cls-12" d="M1847.58,1880.58c-3.88,1.94-11.65,3.88-21.61,3.88-23.06,0-40.42-14.57-40.42-41.39,0-25.61,17.36-43,42.73-43,10.2,0,16.63,2.19,19.42,3.64l-2.55,8.62a38.47,38.47,0,0,0-16.51-3.4c-19.18,0-31.93,12.26-31.93,33.74,0,20,11.53,32.9,31.44,32.9,6.43,0,13-1.33,17.24-3.4Z" transform="translate(-104.26 -180.9)"/><path class="cls-12" d="M1879.75,1810.42h-24.89v-9h60.57v9h-25v72.83h-10.68Z" transform="translate(-104.26 -180.9)"/><path class="cls-12" d="M1935.11,1801.43v81.81h-10.56v-81.81Z" transform="translate(-104.26 -180.9)"/><path class="cls-12" d="M2023.48,1841.49c0,28.16-17.11,43.09-38,43.09-21.61,0-36.78-16.75-36.78-41.51,0-26,16.14-43,38-43C2009,1800.1,2023.48,1817.21,2023.48,1841.49Zm-63.48,1.33c0,17.48,9.47,33.14,26.1,33.14s26.22-15.41,26.22-34c0-16.27-8.5-33.26-26.1-33.26S1960,1824.86,1960,1842.83Z" transform="translate(-104.26 -180.9)"/><path class="cls-12" d="M2037.21,1883.25v-81.81h11.53l26.22,41.39a231.37,231.37,0,0,1,14.69,26.59l.24-.12c-1-10.93-1.22-20.88-1.22-33.62v-34.23h10v81.81h-10.68l-26-41.51a259.86,259.86,0,0,1-15.3-27.31l-.36.12c.61,10.32.85,20.15.85,33.75v35Z" transform="translate(-104.26 -180.9)"/><path class="cls-13" d="M1432.6,2001.58a2.82,2.82,0,0,1,1.64.74l-14.08,30.08c-1.54,0-5.24.22-6.15.22a2.83,2.83,0,0,1-1.64-.74l-4.82-30.08c2.92,0,6.57-.22,7.67-.22a2.81,2.81,0,0,1,1.64.74l1.47,14.72a42,42,0,0,1,.08,4.88,41.49,41.49,0,0,1,1.5-5.23l5.85-14.89c2.6,0,5.82-.22,6.82-.22Z" transform="translate(-104.26 -180.9)"/><path class="cls-13" d="M1447.11,2016.42c0,3.28-1.83,5.44-6.38,6.38l-4.78,1a3.44,3.44,0,0,0,3.81,3.07,6.42,6.42,0,0,0,4.4-2,2.78,2.78,0,0,1,1.34,2.29c0,2.73-4.19,5.69-9.05,5.69s-8.16-3.12-8.16-8.39c0-6.09,4.31-14.35,12-14.35,4.2,0,6.84,2.49,6.84,6.32Zm-8.08,3.15a2,2,0,0,0,1.33-2.13c0-.91-.29-2.26-1.35-2.26-1.9,0-2.73,3.06-3,5.35Z" transform="translate(-104.26 -180.9)"/><path class="cls-13" d="M1460,2010.1c3.87,0,6.78,2.05,6.78,4.72,0,3.33-4,4.55-4,4.55s-1.18-3.64-3.9-3.64c-1.84,0-2.9,1.86-2.9,5.82,0,3.65,1,5.3,3.32,5.3a5.64,5.64,0,0,0,3.92-1.65,2.75,2.75,0,0,1,1.35,2.24c0,2.61-4,5.4-8.7,5.4-5,0-8.05-3.12-8.05-8.31,0-6.17,4.41-14.43,12.21-14.43Z" transform="translate(-104.26 -180.9)"/><path class="cls-13" d="M1478.59,2005.24a2.25,2.25,0,0,1,1.55.71l-.73,4.59h4.86l-1.1,3.5c-.36,1.13-.91,1.75-2.05,1.75h-2.54l-1.42,8.94c-.23,1.45.08,2.11,1.07,2.13a3.84,3.84,0,0,0,1.78-.55,2.73,2.73,0,0,1,1.36,2.17c0,2.19-3.12,4.36-7.07,4.36-4.19,0-5.88-2.56-5.17-7l1.58-10h-2.64l1.15-3.65a2.15,2.15,0,0,1,2-1.6h1.28l1.54-4.22a32.76,32.76,0,0,1,4.54-1.08Z" transform="translate(-104.26 -180.9)"/><path class="cls-13" d="M1502.19,2016.42c0,3.28-1.83,5.44-6.38,6.38l-4.78,1a3.44,3.44,0,0,0,3.81,3.07,6.43,6.43,0,0,0,4.4-2,2.78,2.78,0,0,1,1.35,2.29c0,2.73-4.19,5.69-9.05,5.69s-8.16-3.12-8.16-8.39c0-6.09,4.31-14.35,12-14.35,4.2,0,6.84,2.49,6.84,6.32Zm-8.08,3.15a2,2,0,0,0,1.33-2.13c0-.91-.29-2.26-1.35-2.26-1.89,0-2.73,3.06-3,5.35Z" transform="translate(-104.26 -180.9)"/><path class="cls-13" d="M1521.69,2016.42c0,3.28-1.83,5.44-6.38,6.38l-4.78,1a3.44,3.44,0,0,0,3.81,3.07,6.41,6.41,0,0,0,4.4-2,2.78,2.78,0,0,1,1.35,2.29c0,2.73-4.19,5.69-9.05,5.69s-8.16-3.12-8.16-8.39c0-6.09,4.32-14.35,12-14.35,4.21,0,6.84,2.49,6.84,6.32Zm-8.08,3.15a2,2,0,0,0,1.33-2.13c0-.91-.3-2.26-1.35-2.26-1.9,0-2.73,3.06-3,5.35Z" transform="translate(-104.26 -180.9)"/><path class="cls-13" d="M1537.64,2024.58a5.83,5.83,0,0,1,1.64,4c0,3.35-2.84,4.23-5.21,4.23-3.1,0-5.35-1.48-7.71-2.27-.66.76-1.3,1.52-1.92,2.27,0,0-3.49-.09-3.49-2.47,0-2.9,4.83-7.87,10-13.51a9.83,9.83,0,0,0-1.7-.18c-3,0-4.11,1.48-4.11,1.48a6.25,6.25,0,0,1-1.39-4c.17-3.16,3.18-4,5.54-4a14.43,14.43,0,0,1,6.15,1.76l1.47-1.76s3.52.11,3.52,2.5c0,2.8-4.68,7.68-9.74,13.14a11.47,11.47,0,0,0,3.05.54,4.84,4.84,0,0,0,3.85-1.7Z" transform="translate(-104.26 -180.9)"/><path class="cls-13" d="M1560.31,2030.91c-1.26,7.66-6.51,11.55-13.15,11.55-4.24,0-7.41-2.23-7.41-4.81a3,3,0,0,1,1.42-2.49,6.61,6.61,0,0,0,4.29,1.31c2.67,0,6.28-1.14,6.92-5.16l.5-3.13c-1.79,2.58-4.17,4.67-7.16,4.67-3.37,0-4.87-2.76-4-8.36l1-6.07c.59-3.72.75-6.75.75-6.75,2.4-.44,5.56-1.56,6.67-1.56a2.91,2.91,0,0,1,1.65.72l-1.2,7.59-1.11,7c-.1.65,0,1,.61,1,2.79,0,4.37-8,4.37-8,.59-3.72.75-6.75.75-6.75,2.4-.44,5.56-1.56,6.67-1.56a2.91,2.91,0,0,1,1.65.72l-1.2,7.59Z" transform="translate(-104.26 -180.9)"/><path class="cls-13" d="M1236.51,2011.33H1244a14.68,14.68,0,0,1,3.88.39,6.81,6.81,0,0,1,3.07,1.88,8.91,8.91,0,0,1,1.95,3.3,15.05,15.05,0,0,1,.67,4.82,13.39,13.39,0,0,1-.63,4.34,9,9,0,0,1-2.18,3.6,7.23,7.23,0,0,1-2.89,1.63,12.45,12.45,0,0,1-3.64.43h-7.74Zm4.11,3.45v13.5h3.07a11.21,11.21,0,0,0,2.49-.19,3.8,3.8,0,0,0,1.66-.85,4.31,4.31,0,0,0,1.08-2,13.28,13.28,0,0,0,.42-3.73,12.17,12.17,0,0,0-.42-3.63,4.66,4.66,0,0,0-1.17-2,3.91,3.91,0,0,0-1.9-1,18.66,18.66,0,0,0-3.38-.19Z" transform="translate(-104.26 -180.9)"/><path class="cls-13" d="M1265,2027l3.89.65a6.39,6.39,0,0,1-2.37,3.26,7,7,0,0,1-4.05,1.12,6.6,6.6,0,0,1-5.7-2.52,8.45,8.45,0,0,1-1.46-5.09,8.15,8.15,0,0,1,1.92-5.75,6.32,6.32,0,0,1,4.85-2.08,6.56,6.56,0,0,1,5.2,2.17q1.9,2.18,1.82,6.67h-9.79a4,4,0,0,0,.95,2.7,3,3,0,0,0,2.25,1,2.39,2.39,0,0,0,1.54-.5A3.09,3.09,0,0,0,1265,2027Zm.22-3.95a3.77,3.77,0,0,0-.88-2.58,2.82,2.82,0,0,0-4.14,0,3.6,3.6,0,0,0-.82,2.53Z" transform="translate(-104.26 -180.9)"/><path class="cls-13" d="M1270.37,2027.5l3.92-.6a2.87,2.87,0,0,0,1,1.73,3.42,3.42,0,0,0,2.14.59,3.86,3.86,0,0,0,2.28-.56,1.24,1.24,0,0,0,.51-1,1,1,0,0,0-.28-.74,3.11,3.11,0,0,0-1.31-.51q-4.73-1-6-1.9a3.8,3.8,0,0,1-1.75-3.32,4.09,4.09,0,0,1,1.52-3.22,7.07,7.07,0,0,1,4.7-1.31,8.19,8.19,0,0,1,4.5,1,5,5,0,0,1,2,2.92l-3.68.68a2.28,2.28,0,0,0-.9-1.32,3.28,3.28,0,0,0-1.88-.46,4.24,4.24,0,0,0-2.21.43.93.93,0,0,0-.44.79.86.86,0,0,0,.39.71,14.65,14.65,0,0,0,3.65,1.1,10.86,10.86,0,0,1,4.36,1.74,3.61,3.61,0,0,1,1.22,2.91,4.46,4.46,0,0,1-1.7,3.49,7.51,7.51,0,0,1-5,1.46,8.23,8.23,0,0,1-4.77-1.22A5.64,5.64,0,0,1,1270.37,2027.5Z" transform="translate(-104.26 -180.9)"/><path class="cls-13" d="M1287,2014.94v-3.61h3.91v3.61Zm0,16.76v-14.76h3.91v14.76Z" transform="translate(-104.26 -180.9)"/><path class="cls-13" d="M1294,2032.68l4.46.54a1.52,1.52,0,0,0,.51,1.07,2.94,2.94,0,0,0,1.75.42,4.55,4.55,0,0,0,2.29-.46,1.89,1.89,0,0,0,.78-1,5.93,5.93,0,0,0,.18-1.79v-2.15a5.29,5.29,0,0,1-4.42,2.39,5.44,5.44,0,0,1-4.71-2.52,8.55,8.55,0,0,1-1.36-4.95,8.14,8.14,0,0,1,1.79-5.67,5.76,5.76,0,0,1,4.44-2,5.41,5.41,0,0,1,4.52,2.4v-2.07h3.66v13.25a13.2,13.2,0,0,1-.43,3.91,4.84,4.84,0,0,1-1.21,2,5.35,5.35,0,0,1-2.08,1.15,10.94,10.94,0,0,1-3.29.42q-3.75,0-5.32-1.29a4,4,0,0,1-1.57-3.26Q1294,2033,1294,2032.68Zm3.49-8.66a5.32,5.32,0,0,0,.91,3.44,2.81,2.81,0,0,0,2.24,1.09,3.1,3.1,0,0,0,2.42-1.12,4.87,4.87,0,0,0,1-3.31,5.17,5.17,0,0,0-.95-3.41,3,3,0,0,0-2.39-1.11,2.88,2.88,0,0,0-2.31,1.09A5.11,5.11,0,0,0,1297.48,2024Z" transform="translate(-104.26 -180.9)"/><path class="cls-13" d="M1324.59,2031.71h-3.91v-7.53a11.63,11.63,0,0,0-.25-3.09,2.17,2.17,0,0,0-.81-1.09,2.32,2.32,0,0,0-1.36-.39,3.13,3.13,0,0,0-1.82.56,2.8,2.8,0,0,0-1.1,1.47,12.73,12.73,0,0,0-.3,3.39v6.69h-3.91v-14.76h3.63v2.17a6,6,0,0,1,7.23-2,4,4,0,0,1,1.62,1.19,4.3,4.3,0,0,1,.76,1.64,12.2,12.2,0,0,1,.22,2.63Z" transform="translate(-104.26 -180.9)"/><path class="cls-13" d="M1336.53,2027l3.89.65a6.39,6.39,0,0,1-2.37,3.26A7,7,0,0,1,1334,2032a6.6,6.6,0,0,1-5.7-2.52,8.45,8.45,0,0,1-1.46-5.09,8.15,8.15,0,0,1,1.92-5.75,6.32,6.32,0,0,1,4.85-2.08,6.56,6.56,0,0,1,5.2,2.17q1.9,2.18,1.82,6.67h-9.79a4,4,0,0,0,.95,2.7,3,3,0,0,0,2.25,1,2.39,2.39,0,0,0,1.54-.5A3.09,3.09,0,0,0,1336.53,2027Zm.22-3.95a3.77,3.77,0,0,0-.88-2.58,2.82,2.82,0,0,0-4.14,0,3.6,3.6,0,0,0-.82,2.53Z" transform="translate(-104.26 -180.9)"/><path class="cls-13" d="M1356.79,2031.71h-3.63v-2.17a5.86,5.86,0,0,1-2.13,1.88,5.49,5.49,0,0,1-2.48.62,5.62,5.62,0,0,1-4.36-2.05,8.34,8.34,0,0,1-1.81-5.72,8.25,8.25,0,0,1,1.77-5.71,5.76,5.76,0,0,1,4.46-2,5.53,5.53,0,0,1,4.28,2.06v-7.34h3.91Zm-10.42-7.7a6.76,6.76,0,0,0,.65,3.42,3,3,0,0,0,2.64,1.53,2.88,2.88,0,0,0,2.29-1.15,5.3,5.3,0,0,0,.95-3.43,5.79,5.79,0,0,0-.92-3.66,2.9,2.9,0,0,0-2.35-1.12,2.94,2.94,0,0,0-2.33,1.1A5,5,0,0,0,1346.36,2024Z" transform="translate(-104.26 -180.9)"/><path class="cls-13" d="M1367.24,2031.71v-20.38h3.91v7.34a5.53,5.53,0,0,1,4.28-2.06,5.76,5.76,0,0,1,4.46,2,8.09,8.09,0,0,1,1.77,5.61,8.53,8.53,0,0,1-1.8,5.82,5.62,5.62,0,0,1-4.37,2,5.41,5.41,0,0,1-2.5-.63,6,6,0,0,1-2.12-1.87v2.17Zm3.88-7.7a6.28,6.28,0,0,0,.72,3.39,3.09,3.09,0,0,0,2.7,1.56,2.76,2.76,0,0,0,2.2-1.11,5.43,5.43,0,0,0,.91-3.48,5.76,5.76,0,0,0-.92-3.65,2.9,2.9,0,0,0-2.35-1.12,2.94,2.94,0,0,0-2.34,1.09A5,5,0,0,0,1371.12,2024Z" transform="translate(-104.26 -180.9)"/><path class="cls-13" d="M1382.38,2016.95h4.16l3.53,10.48,3.45-10.48h4l-5.21,14.21-.93,2.57a10.48,10.48,0,0,1-1,2,4.28,4.28,0,0,1-1.07,1.1,4.68,4.68,0,0,1-1.49.66,7.72,7.72,0,0,1-2,.24,10.35,10.35,0,0,1-2.21-.24l-.35-3.06a8.64,8.64,0,0,0,1.65.18,2.46,2.46,0,0,0,2-.8,5.56,5.56,0,0,0,1-2Z" transform="translate(-104.26 -180.9)"/></g></g></svg>